<svg width="17" height="7" clip-rule="evenodd" fill-rule="evenodd" image-rendering="optimizeQuality" shape-rendering="geometricPrecision" text-rendering="geometricPrecision" version="1.1" viewBox="0 0 14192.875 6139" xml:space="preserve" xmlns="http://www.w3.org/2000/svg">
	<g transform="matrix(1.0505 0 0 1.0505 80.437 305.63)">
		<path fill="#ff1019" d="m1946 1c-1068-35-1946 819-1946 1881 0 1203 1155 2076 1801 3333 18 31 49 47 81 47 29 0 61-16 78-47 586-1131 1585-1889 1773-2977 190-1128-644-2198-1787-2237zm4635 65c20-23 57-36 104-40 49-4 96 1 141 15 43 11 81 33 109 59 29 27 36 63 22 104-85 230-176 472-272 728-95 254-201 490-319 705-119 216-254 393-406 534-152 139-328 209-525 209-161 0-280-30-355-89-76-59-125-126-149-203-26-77-35-158-29-238 8-81 15-143 23-185 7-55 34-92 77-112 46-19 89-25 135-16 45 9 82 31 115 64 33 35 42 79 27 127-28 104-26 185 9 238 33 54 82 79 141 79 108 0 210-51 307-157 98-106 189-242 273-406 87-162 169-343 245-543 78-199 149-392 214-578-93 3-191 6-294 8-102 2-198 3-287 5s-164 2-226 0c-60-2-95-5-102-7-10-8-19-27-27-62-7-31-12-65-13-104-3-36 0-73 5-107 6-34 17-56 35-68 7-4 47-5 118-5 72 0 160 3 264 8 104 6 214 12 328 17 115 5 217 11 312 20zm-889 2877c135 0 246 42 331 126 84 84 138 187 166 310 27 122 25 254-6 396-29 141-95 270-194 385-98 115-231 205-396 272-169 67-373 87-612 62-56 150-100 283-131 398-31 114-34 187-8 222 11 14 8 28-9 45-15 16-38 30-69 40-29 11-63 17-101 21-34 5-67-1-96-15-108-50-113-259-16-630 96-370 320-903 667-1599 11-19 30-33 56-44 27-10 58-18 95-19 34-2 71 0 108 9 34 6 65 17 91 31 17-4 38-6 59-7 20-3 42-3 65-3zm-581 1239c85-4 170-21 253-49 81-29 155-68 216-118 63-50 114-113 151-186 38-74 58-157 58-251 0-108-30-186-87-236-58-50-121-68-190-54-49 108-111 241-185 400-73 161-143 326-216 494zm1582-598c-41 0-75-15-100-42-27-24-42-59-42-99 0-39 15-72 42-96 25-26 59-38 100-38 37 0 70 12 96 38 24 24 37 57 37 96 0 40-13 75-37 99-26 27-59 42-96 42zm-400 1460c-10 30-35 54-71 68-40 11-77 14-116 7-41-7-73-23-103-50-29-23-38-59-27-102 18-89 55-224 107-404 55-178 139-413 253-704 11-26 39-44 83-53 47-9 91-7 135 3 44 12 83 31 110 56 30 28 35 66 16 111-32 79-63 153-94 221-30 69-60 141-91 220-29 81-63 169-93 268-32 99-68 217-109 359zm4276-755c6-21 20-36 39-46 19-9 39-13 58-12 18 3 31 11 41 27 12 13 14 31 5 53-6 21-25 75-54 161-32 86-71 175-119 268-49 91-106 175-172 250-66 74-140 113-218 113-18 0-43-5-73-12-29-8-60-22-92-40-31-20-58-48-85-84-27-33-47-79-58-134-67 73-140 132-219 176-79 45-161 65-246 65-99 0-183-28-256-88-62-50-97-122-104-210-62 66-135 128-217 183-104 71-221 105-350 105h-138c-55 0-108-1-163-2-52-3-104-5-153-7-49-4-83-9-104-16-18-5-35-18-53-42-15-23-28-47-36-73-9-25-17-50-19-75-2-16-2-29 1-39-53 54-115 103-185 149-103 71-219 105-348 105h-140c-54 0-107-1-161-2-54-3-106-5-154-7-47-4-84-9-103-16-20-5-37-18-53-42-17-23-28-47-38-73-9-25-14-50-18-75-3-25 0-43 10-53 21-25 57-61 104-104 45-47 100-99 163-161 62-61 129-127 202-199 71-71 145-145 220-226-127 7-225 11-299 12-73 3-117 0-132-7-10-7-19-25-26-53-8-28-12-60-13-95-3-35 0-68 5-98 5-29 16-51 34-61 9-4 37-4 87-3 49 3 110 4 183 8 72 4 146 10 228 17 80 7 154 15 218 21 24-14 56-13 92 4 34 14 67 38 96 69 28 31 49 61 62 97 13 33 11 58-3 70-104 105-221 215-350 332-129 118-266 235-414 349h200c85 0 171-22 255-64 56-29 114-61 166-94 58-39 189-136 254-80 19 16 46 56-6 120-19 23-34 45-52 68 9-9 18-18 27-26 46-47 103-99 164-161 63-61 130-127 202-199 70-71 147-145 221-226-126 7-226 11-298 12-74 3-118 0-132-7-10-7-19-25-29-53-6-28-11-60-12-95-2-35 0-68 5-98 5-29 18-51 36-61 7-4 35-4 86-3 50 3 110 4 183 8 71 4 148 10 228 17 82 7 152 15 218 21 25-14 55-13 91 4 37 14 68 38 98 69 27 31 47 61 61 97 12 33 11 58-3 70-104 105-220 215-349 332-128 118-266 235-414 349h198c88 0 173-22 257-64 83-44 157-91 222-146 64-54 119-107 161-158 12-14 22-27 31-39 40-76 88-147 145-215 76-91 165-170 264-232 102-61 209-93 323-93 104 0 184 33 237 96l16-32c15-25 44-43 87-54 44-10 83-10 124 0 39 11 71 32 97 59 24 28 28 67 10 112-19 51-49 121-94 209-46 88-86 180-124 271-38 92-62 170-74 236-13 66 3 99 44 99s82-25 125-74c42-46 83-103 121-163 36-61 69-121 95-178 28-58 45-95 53-113zm-1162 474c46 0 107-34 177-100 72-66 138-140 199-220 61-81 107-155 137-224 30-68 29-102-2-102-62 0-132 30-211 98-79 69-153 150-213 231-62 81-99 151-123 217-23 66-12 100 36 100zm-2063-3869c74 0 138 16 188 45 50 31 90 70 116 115 28 49 42 101 47 157 7 58 2 114-13 167 4 8 5 19 5 38-10 136-38 257-86 358-45 104-101 188-165 259-65 70-135 122-213 159-78 35-151 54-223 54-133 0-231-34-295-101-65-65-104-148-116-250-13-100-1-208 34-326 36-115 89-224 160-324 68-101 152-186 249-252 98-65 201-99 312-99zm-285 1111c42 0 86-19 129-56 44-35 80-78 114-129 32-49 55-106 74-165 18-59 26-113 22-163-28-36-34-70-17-104 41-41 62-86 69-130 5-46-9-68-42-68-38 0-83 20-132 60-48 38-95 89-139 150-45 61-83 127-115 196-33 72-56 135-67 197-14 61-11 111 2 151 14 38 48 61 102 61zm1763-1073c122 0 201 40 238 119 35 83 44 184 26 306s-53 253-106 393c-51 140-105 270-163 387-18 45-52 73-101 87-51 15-100 19-149 15-47-7-89-22-122-47-31-26-36-59-14-97 21-44 51-108 91-197 38-88 73-176 105-263 30-89 50-166 60-235 12-67-1-103-36-103-47 0-101 35-161 100-62 67-122 146-183 240-61 92-119 190-173 288-53 99-96 180-130 246-13 29-38 46-71 55-36 10-70 10-105 0-35-9-65-25-88-49-24-27-30-58-20-98 11-44 30-119 57-226 27-108 68-244 123-407 56-163 127-355 219-575 90-217 201-461 333-732 15-25 43-41 87-51 42-9 85-8 127 2 45 13 78 30 103 58 25 27 25 63 0 111-53 93-125 235-215 422-90 188-178 396-263 622 67-103 145-193 236-263 89-73 189-108 295-108zm1356 0c122 0 200 40 236 119 36 83 45 184 27 306s-53 253-105 393c-53 140-105 270-164 387-17 45-51 73-100 87-47 15-94 19-138 15-46-7-83-22-111-47-29-26-32-59-10-97 21-44 49-108 88-197 38-88 71-176 102-263 30-89 50-166 57-235 6-67-9-103-54-103-48 0-99 33-157 95-57 63-115 139-174 229s-114 184-166 279c-53 99-97 179-131 243-6 3-7 7-7 10-12 34-33 56-67 68-34 14-70 16-105 9-35-8-67-24-94-48-25-27-34-59-23-103 17-89 53-225 106-404 54-180 138-414 253-705 11-27 37-42 78-51 42-9 83-8 124 2 42 11 76 30 102 56 27 28 30 64 13 111-7 21-14 44-24 65-8 20-18 42-29 58 64-83 135-151 214-200 80-53 165-79 259-79zm1376 0c122 0 200 40 236 119 37 83 46 184 28 306-20 122-53 253-105 393s-107 270-164 387c-18 45-51 73-100 87-47 15-94 19-139 15-46-7-81-22-112-47-28-26-30-59-10-97 23-44 53-108 89-197 38-88 72-176 101-263 33-89 50-166 58-235 8-67-10-103-55-103s-97 33-154 95c-58 63-116 139-175 229s-115 184-167 279c-53 99-96 179-132 243-4 3-5 7-5 10-10 34-35 56-67 68-35 14-70 16-104 9-37-8-69-24-94-48-28-27-37-59-26-103 20-89 53-225 108-404 53-180 138-414 252-705 11-27 38-42 79-51s83-8 124 2c41 11 75 30 101 56 28 28 32 64 13 111-6 21-14 44-23 65-9 20-19 42-30 58 65-83 136-151 214-200 79-53 166-79 259-79zm1468-33c10-25 37-44 78-57 41-11 84-14 126-9 44 4 78 21 106 47 26 28 32 65 18 116-75 236-154 475-233 713-82 239-165 456-252 647-89 192-181 350-278 473-96 124-200 192-307 203-101 7-182-7-248-46-64-38-113-88-145-147-11-27-12-49-5-71 8-22 18-37 32-48 14-12 30-16 46-12 17 4 28 15 36 33 24 46 66 68 122 64 119-6 216-85 294-238 78-147 165-370 259-660-63 90-137 163-220 223-80 60-172 89-273 89-123 0-200-40-236-121-37-81-45-182-28-305 18-122 53-254 106-393 52-139 105-268 164-387 18-43 51-73 101-86 50-14 99-19 149-13 47 5 89 20 120 44 33 25 38 59 17 96-23 45-52 110-92 199-39 87-73 176-105 264-31 87-50 165-60 233-12 67 1 103 35 103 48 0 100-33 160-96 59-66 118-143 177-233 60-90 116-184 170-283 53-98 96-181 128-245 8-18 14-34 19-48s12-30 19-49zm-11140 1968c-545 0-986-441-986-985s441-985 986-985c544 0 984 441 984 985s-440 985-984 985z" fill-rule="nonzero"/>
	</g>
</svg>