<?xml version="1.0" encoding="utf-8"?>
<!-- Generator: Adobe Illustrator 19.2.1, SVG Export Plug-In . SVG Version: 6.00 Build 0)  -->
<svg version="1.1" id="Layer_1" xmlns="http://www.w3.org/2000/svg" xmlns:xlink="http://www.w3.org/1999/xlink" x="0px" y="0px"
	 viewBox="0 0 86 85.6" style="enable-background:new 0 0 86 85.6;" xml:space="preserve">
<style type="text/css">
	.st0{fill:none;stroke:#AEAEB1;}
	.st1{fill:none;stroke:#000000;stroke-miterlimit:10;}
	.st2{fill:#AEAEB1;}
</style>
<path class="st0" d="M20.8,37.3c0-0.1-0.1-0.2-0.1-0.3c0,0,0,0,0,0"/>
<line class="st0" x1="20.7" y1="37.2" x2="20.7" y2="37.2"/>
<path class="st0" d="M58.3,39.7c-5.3,1-16.8,1.5-28.7-7C34.9,36.3,44.8,41.1,58.3,39.7z"/>
<path class="st1" d="M65.3,51.5C65.3,51.5,65.3,51.5,65.3,51.5"/>
<path class="st0" d="M19.3,50.3C19.3,50.3,19.3,50.3,19.3,50.3"/>
<path class="st0" d="M20.7,37c0,0.1,0,0.1,0,0.2v0c0,0.1,0,0.2,0,0.2s0,0,0,0c-2.4,1.9-3.1,4.5-2.9,7v0.1"/>
<path class="st0" d="M25.4,29.4C25.4,29.4,25.4,29.4,25.4,29.4"/>
<line class="st0" x1="22.9" y1="30.4" x2="22.9" y2="30.4"/>
<path class="st0" d="M30.7,21.6c0,0,4.3-13.7,12.3-12.7c0,0-0.3,6.3,7.3,10.3c1.3,0.7,2.5,1.6,3.5,2.6c1.9,2,3.6,5.2,0.8,8.7
	c0,0,10.4,0.1,6.9,8.4c0,0,0,0,0.1,0c0,0,0,0,0.1,0c0.1,0,0.2,0.1,0.3,0.2"/>
<path class="st0" d="M25.4,29.4c0,0-0.3-7.7,5.3-7.7"/>
<path class="st0" d="M55,55.7C55,55.7,55,55.7,55,55.7"/>
<line class="st0" x1="39.6" y1="60.8" x2="39.6" y2="60.8"/>
<polyline class="st0" points="29.1,77.8 27.4,61.3 26.6,54.7 "/>
<line class="st0" x1="32.5" y1="50.8" x2="32.5" y2="50.8"/>
<polyline class="st0" points="32.8,56.2 33.2,61.7 34.1,77.7 "/>
<polyline class="st0" points="45.9,56.6 45.9,59.2 45.9,77.7 "/>
<polyline class="st0" points="39.4,56.7 39.6,60.8 39.6,60.8 40.5,77.7 "/>
<line class="st0" x1="58.4" y1="55" x2="55.8" y2="77.6"/>
<polyline class="st0" points="50.9,77.7 51.9,57.1 51.9,56.1 "/>
<path class="st0" d="M33.2,61.7l-0.3-5.6c-2.5-0.4-4.5-0.9-6.2-1.4l0.7,6.6 M19,49.7l-0.1,0.1c0,0,0,0,0,0c0.1,0.4,1.5,6.6,2.8,12.9
	c1.4,6.5,2.8,12.9,2.8,12.9c0.1,1.2,1.1,2.1,2.4,2.1l2.2,0l4.9,0l6.4,0l5.4,0l5,0l4.9,0h0.7c1.2,0,2.2-0.9,2.4-2.1l6.4-25l0-0.1
	l0.1-0.3 M19.3,50.3C19.3,50.3,19.3,50.3,19.3,50.3c0.8,0.9,2.8,2.9,7.4,4.4c1.7,0.6,3.7,1.1,6.2,1.4c1.9,0.3,4.1,0.5,6.6,0.6
	c2,0.1,4.1,0,6.5-0.1c1.9-0.1,3.9-0.3,6-0.5c0.1,0,0.1,0,0.2,0c1-0.1,1.9-0.2,2.8-0.4c0,0,0,0,0,0c1.2-0.2,2.3-0.4,3.4-0.7"/>
<path class="st0" d="M18.6,37.2"/>
<path class="st0" d="M19.3,50.3c-0.2-0.2-0.3-0.4-0.4-0.5c0,0,0,0,0,0c-0.9-1.9-1.2-3.7-1.1-5.3"/>
<path class="st0" d="M58.4,55c2.9-0.8,5.4-2.1,6.9-4.6c0,0,0-0.1,0.1-0.1c0.1-0.2,0.3-0.4,0.4-0.7"/>
<path class="st0" d="M20.9,37.4c0,0,0-0.1-0.1-0.1"/>
<path class="st0" d="M25.4,29.4C25.4,29.4,25.4,29.4,25.4,29.4c-0.4,0.1-1.4,0.4-2.5,1l0,0c-0.4,0.2-0.7,0.5-1.1,0.8
	c-0.9,0.8-1.6,2-1.6,3.7c0,0.7,0.1,1.4,0.4,2.1"/>
<path class="st0" d="M29.2,32.4c-1.7-1.2-2.9-2.2-3.4-2.7C26.9,30.6,28,31.5,29.2,32.4z"/>
<path class="st0" d="M20.7,37C20.7,37,20.7,37,20.7,37c0,0.1,0.1,0.2,0.1,0.3 M25.4,29.4C25.4,29.4,25.4,29.4,25.4,29.4
	C25.4,29.4,25.5,29.4,25.4,29.4C25.5,29.4,25.5,29.4,25.4,29.4c0.1,0.1,0.1,0.1,0.2,0.1c0,0,0.1,0,0.1,0.1c0,0,0.1,0.1,0.1,0.1
	c0.5,0.5,1.7,1.5,3.4,2.7c0.2,0.1,0.3,0.2,0.5,0.3c12,8.5,23.4,7.9,28.7,7c0,0,0,0,0,0c0,0,0,0,0,0c1.1-0.1,2.3-0.3,3.5-0.5h0
	c0,0,0,0,0.1,0h0c4.9,2.3,5.6,5.2,5.1,7.5c0,0.1,0,0.2-0.1,0.4c-0.3,1.2-0.9,2.1-1.2,2.6c0,0,0,0,0,0c-0.2,0.3-0.3,0.4-0.3,0.4
	c-0.2,0.2-0.4,0.3-0.6,0.5l0,0c-1.3,1-2.6,1.7-4.1,2.3c0,0,0,0,0,0c-0.7,0.3-1.4,0.5-2.2,0.6c-2.1,0.5-4.3,0.6-6.5,0.4
	c-2-0.2-4.1-0.6-6.1-1.1c-2.3-0.6-4.6-1.5-6.8-2.4c-1.7-0.8-3.4-1.6-5.1-2.5c-0.6-0.3-1.2-0.7-1.7-1c-0.8-0.5-1.5-0.9-2.2-1.4h0
	c-3.6-2.3-6.5-4.7-8.1-6.5c-0.4-0.5-0.8-1-1.1-1.6"/>
<path class="st0" d="M62,39.2c-0.1-0.1-0.2-0.1-0.4-0.2c0,0,0,0-0.1,0c0,0,0,0-0.1,0c0,0-1.1,0.4-3.1,0.7"/>
<path class="st2" d="M43.6,25.1l-1.8,1.3c-0.2,0.2-0.5,0.1-0.7-0.1l0,0c-0.2-0.2-0.1-0.5,0.1-0.7l1.8-1.3c0.2-0.2,0.5-0.1,0.7,0.1
	l0,0C43.9,24.7,43.8,25,43.6,25.1z"/>
<path class="st2" d="M51.2,36.3l-0.9-2c-0.1-0.2,0-0.5,0.2-0.6l0,0c0.2-0.1,0.5,0,0.6,0.2l0.9,2c0.1,0.2,0,0.5-0.2,0.6l0,0
	C51.6,36.6,51.3,36.5,51.2,36.3z"/>
<path class="st2" d="M38.2,34.3l-1.3-1.8c-0.2-0.2-0.1-0.5,0.1-0.7l0,0c0.2-0.2,0.5-0.1,0.7,0.1l1.3,1.8c0.2,0.2,0.1,0.5-0.1,0.7
	l0,0C38.6,34.6,38.3,34.5,38.2,34.3z"/>
<path class="st2" d="M28.9,28.6l1.8-1.4c0.2-0.2,0.5-0.1,0.7,0.1l0,0c0.2,0.2,0.1,0.5-0.1,0.7l-1.8,1.4c-0.2,0.2-0.5,0.1-0.7-0.1
	l0,0C28.7,29.1,28.7,28.8,28.9,28.6z"/>
<path class="st2" d="M37.6,20.6l-0.9-2c-0.1-0.2,0-0.5,0.2-0.6l0,0c0.2-0.1,0.5,0,0.6,0.2l0.9,2c0.1,0.2,0,0.5-0.2,0.6l0,0
	C37.9,20.9,37.7,20.8,37.6,20.6z"/>
<path class="st0" d="M30.5,21.4c5.2,5.8,13.5,9.5,24.6,9"/>
<path class="st2" d="M22.8,46.7l1.8-1.4c0.2-0.2,0.5-0.1,0.7,0.1l0,0c0.2,0.2,0.1,0.5-0.1,0.7l-1.8,1.4c-0.2,0.2-0.5,0.1-0.7-0.1
	l0,0C22.5,47.1,22.6,46.8,22.8,46.7z"/>
<path class="st2" d="M32.8,53.3L32,51.2c-0.1-0.2,0-0.5,0.3-0.6l0,0c0.2-0.1,0.5,0,0.6,0.3l0.7,2.1c0.1,0.2,0,0.5-0.3,0.6l0,0
	C33.1,53.7,32.8,53.6,32.8,53.3z"/>
<path class="st2" d="M43,46.9l-0.7-2.1c-0.1-0.2,0-0.5,0.3-0.6l0,0c0.2-0.1,0.5,0,0.6,0.3l0.7,2.1c0.1,0.2,0,0.5-0.3,0.6l0,0
	C43.4,47.3,43.1,47.2,43,46.9z"/>
<path class="st2" d="M33.9,41.9l-1.6-1.5c-0.2-0.2-0.2-0.5,0-0.7l0,0c0.2-0.2,0.5-0.2,0.7,0l1.6,1.5c0.2,0.2,0.2,0.5,0,0.7l0,0
	C34.4,42,34.1,42,33.9,41.9z"/>
<path class="st2" d="M26.5,36.3L24.3,36c-0.3,0-0.5-0.3-0.4-0.5l0,0c0-0.3,0.3-0.5,0.5-0.4l2.2,0.2c0.3,0,0.5,0.3,0.4,0.5l0,0
	C27,36.1,26.7,36.3,26.5,36.3z"/>
<path class="st2" d="M53.3,47.5L55,46c0.2-0.2,0.5-0.1,0.7,0.1l0,0c0.2,0.2,0.1,0.5-0.1,0.7L54,48.2c-0.2,0.2-0.5,0.1-0.7-0.1l0,0
	C53.1,47.9,53.1,47.6,53.3,47.5z"/>
</svg>
