<?xml version="1.0" encoding="utf-8"?>
<!-- Generator: Adobe Illustrator 19.2.1, SVG Export Plug-In . SVG Version: 6.00 Build 0)  -->
<svg version="1.1" id="Layer_1" xmlns="http://www.w3.org/2000/svg" xmlns:xlink="http://www.w3.org/1999/xlink" x="0px" y="0px"
	 viewBox="0 0 86 85.6" style="enable-background:new 0 0 86 85.6;" xml:space="preserve">
<style type="text/css">
	.st0{fill:none;stroke:#AEAEB1;stroke-miterlimit:10;}
	.st1{filter:url(#Adobe_OpacityMaskFilter);}
	.st2{fill:#FFFFFF;}
	.st3{mask:url(#b_3_);fill:none;stroke:#AEAEB1;}
	.st4{filter:url(#Adobe_OpacityMaskFilter_1_);}
	.st5{mask:url(#b_1_);fill:none;stroke:#AEAEB1;}
	.st6{filter:url(#Adobe_OpacityMaskFilter_2_);}
	.st7{mask:url(#b_2_);fill:none;stroke:#AEAEB1;}
</style>
<path class="st0" d="M33,75.8"/>
<path class="st0" d="M40,8.9"/>
<defs>
	<filter id="Adobe_OpacityMaskFilter" filterUnits="userSpaceOnUse" x="38.4" y="6.3" width="7.3" height="1.2">
		<feColorMatrix  type="matrix" values="1 0 0 0 0  0 1 0 0 0  0 0 1 0 0  0 0 0 1 0"/>
	</filter>
</defs>
<mask maskUnits="userSpaceOnUse" x="38.4" y="6.3" width="7.3" height="1.2" id="b_3_">
	<g class="st1">
		<path id="a_3_" class="st2" d="M0,5.1c0-3,2.4-5.4,5.4-5.4h75.4c3,0,5.4,2.4,5.4,5.4v75.4c0,3-2.4,5.4-5.4,5.4H5.4
			c-3,0-5.4-2.4-5.4-5.4V5.1z"/>
	</g>
</mask>
<path class="st3" d="M45.7,6.8c-0.8-0.1-1.7-0.1-2.7,0c-1.5,0-2.8,0-3.9,0.1C38.9,7,38.7,7,38.5,7"/>
<defs>
	<filter id="Adobe_OpacityMaskFilter_1_" filterUnits="userSpaceOnUse" x="32" y="6.3" width="22.5" height="73">
		<feColorMatrix  type="matrix" values="1 0 0 0 0  0 1 0 0 0  0 0 1 0 0  0 0 0 1 0"/>
	</filter>
</defs>
<mask maskUnits="userSpaceOnUse" x="32" y="6.3" width="22.5" height="73" id="b_1_">
	<g class="st4">
		<path id="a_1_" class="st2" d="M0,5.1c0-3,2.4-5.4,5.4-5.4h75.4c3,0,5.4,2.4,5.4,5.4v75.4c0,3-2.4,5.4-5.4,5.4H5.4
			c-3,0-5.4-2.4-5.4-5.4V5.1z"/>
	</g>
</mask>
<path class="st5" d="M32.6,69.7c-0.1,1.5,0,3,0.3,4.7c0.3,1.5,0.9,2.6,1.8,3.3c0.4,0.4,0.9,0.7,1.3,0.9c0.3,0.1,0.5,0.2,0.5,0.2
	h12.8l0,0c0.1,0,0.3-0.1,0.6-0.2c0.5-0.2,0.9-0.5,1.3-0.9c0.8-0.8,1.5-1.9,1.8-3.3c0.6-3,0.5-5.2-0.3-8.3l-0.1-0.4l-0.1-0.3
	c-0.1-0.2-0.1-0.5-0.2-0.7c-0.5-2.4-0.4-3.5,0.5-7.9c1.2-5.8,1.3-16.8,0.5-23c-0.4-2.7-1.2-5-2.4-7.5c-0.3-0.6-1.7-3.1-2-3.7
	c-0.3-0.7-0.6-1.4-0.8-2.1c-0.5-1.6-0.9-3.4-1.1-5.1C47,14.8,47,14.3,47,13.7c0-0.2,0-0.4,0-0.6l0-0.3h1.1v-1.5L47.7,11V7
	c-0.2,0-0.5-0.1-0.7-0.1c-0.4,0-0.8-0.1-1.2-0.1"/>
<defs>
	<filter id="Adobe_OpacityMaskFilter_2_" filterUnits="userSpaceOnUse" x="31.5" y="6.5" width="8" height="63.3">
		<feColorMatrix  type="matrix" values="1 0 0 0 0  0 1 0 0 0  0 0 1 0 0  0 0 0 1 0"/>
	</filter>
</defs>
<mask maskUnits="userSpaceOnUse" x="31.5" y="6.5" width="8" height="63.3" id="b_2_">
	<g class="st6">
		<path id="a_2_" class="st2" d="M0,5.1c0-3,2.4-5.4,5.4-5.4h75.4c3,0,5.4,2.4,5.4,5.4v75.4c0,3-2.4,5.4-5.4,5.4H5.4
			c-3,0-5.4-2.4-5.4-5.4V5.1z"/>
	</g>
</mask>
<path class="st7" d="M38.5,7c0,0-0.1,0-0.1,0V11l-0.4,0.3v1.5h1.1l0,0.3c0,0.1,0,0.3,0,0.6c0,0.5-0.1,1.1-0.1,1.7
	c-0.2,1.7-0.5,3.5-1.1,5.1c-0.2,0.7-0.5,1.4-0.8,2.1c-0.3,0.6-1.7,3.2-2,3.7c-1.3,2.5-2.1,4.8-2.4,7.5C31.7,40,31.8,51,33,56.8
	c0.9,4.4,1,5.6,0.5,7.9c0,0.2-0.1,0.4-0.2,0.7l-0.2,0.7c-0.3,1.3-0.5,2.5-0.6,3.6"/>
</svg>
