<?xml version="1.0"?>
<svg xmlns="http://www.w3.org/2000/svg" xmlns:xlink="http://www.w3.org/1999/xlink" version="1.1" id="Capa_1" x="0px" y="0px" viewBox="0 0 480 480" style="enable-background:new 0 0 480 480;" xml:space="preserve" width="512px" height="512px"><g><g>
	<g>
		<path d="M251.163,436.192l-6.4-124.92c-0.78-20.28-5.307-40.24-13.352-58.872l-31.616-73.352    c-6.93-16.18-10.917-33.467-11.776-51.048h8c4.418,0,8-3.582,8-8V72c0-4.418-3.582-8-8-8h-25.352l-7.12-56.992    c-0.5-4.003-3.902-7.007-7.936-7.008h-32c-4.034,0.001-7.436,3.005-7.936,7.008L108.547,64H84.019c-4.418,0-8,3.582-8,8v48    c0,4.418,3.582,8,8,8h7.2c-0.853,17.583-4.838,34.873-11.768,51.056L47.819,252.4c-8.042,18.607-12.567,38.544-13.344,58.8    l-6.456,125.08c-0.371,8.838,2.05,17.568,6.92,24.952c7.624,11.71,20.651,18.771,34.624,18.768h140.096    c13.963-0.012,26.976-7.071,34.6-18.768C249.138,453.82,251.554,445.057,251.163,436.192z M130.675,16h17.872l6,48h-29.88    L130.675,16z M92.019,80h96v32h-96V80z M230.867,452.464c-4.672,7.175-12.646,11.512-21.208,11.536H69.563    c-8.57-0.019-16.552-4.36-21.224-11.544c-3.02-4.571-4.531-9.974-4.32-15.448l6.4-125.112    c0.708-18.315,4.798-36.341,12.064-53.168l31.648-73.344c7.858-18.169,12.36-37.611,13.288-57.384h64.384    c0.924,19.774,5.426,39.216,13.288,57.384l31.616,73.344c7.277,16.86,11.367,34.922,12.064,53.272l6.4,124.92    C235.396,442.424,233.891,447.86,230.867,452.464z" data-original="#000000" class="active-path" data-old_color="#000000" fill="#B1B1B5"/>
	</g>
</g><g>
	<g>
		<path d="M211.611,431.6l-5.192-104.072c-1.615-36.893-32.832-65.491-69.725-63.875c-34.63,1.516-62.359,29.245-63.875,63.875    l-5.2,104.072c-0.221,4.413,3.177,8.169,7.59,8.39c0.137,0.007,0.273,0.01,0.41,0.01h127.992c4.418,0.005,8.004-3.572,8.01-7.99    C211.621,431.873,211.617,431.737,211.611,431.6z M84.019,424l4.8-95.672c1.494-28.056,25.45-49.589,53.506-48.094    c25.967,1.383,46.711,22.127,48.094,48.094l4.8,95.672H84.019z" data-original="#000000" class="active-path" data-old_color="#000000" fill="#B1B1B5"/>
	</g>
</g><g>
	<g>
		<path d="M420.019,136v-8c4.418,0,8-3.582,8-8V80c0-4.418-3.582-8-8-8h-24.936l-7.128-56.992c-0.5-4.003-3.902-7.007-7.936-7.008    h-24c-4.034,0.001-7.436,3.005-7.936,7.008L340.955,72h-24.936c-4.418,0-8,3.582-8,8v40c0,4.418,3.582,8,8,8v8    c-17.673,0-32,14.327-32,32v296c0,8.837,7.163,16,16,16h136c8.837,0,16-7.163,16-16V168C452.019,150.327,437.692,136,420.019,136z     M363.083,24h9.872l6,48h-21.872L363.083,24z M324.019,88h88v24h-88V88z M404.019,128v8h-72v-8H404.019z M436.019,464h-136v-40    h136V464z M436.019,408h-136V224h136V408z M436.019,208h-136v-40c0-8.837,7.163-16,16-16h104c8.837,0,16,7.163,16,16V208z" data-original="#000000" class="active-path" data-old_color="#000000" fill="#B1B1B5"/>
	</g>
</g></g> </svg>
