<?xml version="1.0" encoding="utf-8"?>
<!-- Generator: Adobe Illustrator 19.2.1, SVG Export Plug-In . SVG Version: 6.00 Build 0)  -->
<svg version="1.1" id="Layer_1" xmlns="http://www.w3.org/2000/svg" xmlns:xlink="http://www.w3.org/1999/xlink" x="0px" y="0px"
	 viewBox="0 0 86 85.6" style="enable-background:new 0 0 86 85.6;" xml:space="preserve">
<style type="text/css">
	.st0{fill:none;stroke:#AEAEB1;stroke-miterlimit:10;}
	.st1{fill:none;stroke:#AEAEB1;}
</style>
<path class="st0" d="M28,73.9"/>
<g>
	<path class="st1" d="M22.5,38.6l13.4-0.1c-0.2,9.7,13.8,13,13.6-0.1l13.9,0.1l-3.9,37.3c-8.7,3.3-18.7,3.4-30.1,0.3L22.5,38.6z"/>
	<polygon class="st1" points="19.1,15.8 25.5,13 26.8,38.5 23.7,38.6 	"/>
	<polyline class="st1" points="22.9,38.6 18.1,18.2 19.1,15.8 	"/>
	<polyline class="st1" points="25.5,13 25.3,10.3 32.5,9.2 33.1,20.5 	"/>
	<polyline class="st1" points="32.5,9.2 34.2,10 34.3,13.2 34.4,19.8 	"/>
	<polyline class="st1" points="39.4,20.1 39.6,13.8 34.3,13.2 	"/>
	<polyline class="st1" points="32.8,38.5 31.9,20.8 37.9,18.8 39.1,45.4 	"/>
	<polyline class="st1" points="40.6,46.3 40.1,21 37.9,18.8 	"/>
	<path class="st1" d="M38,13.6c0,0,0-5,0-5l7.5-1.3l0.1,13"/>
	<polyline class="st1" points="46.6,20.2 47.3,8.9 45.5,7.4 	"/>
	<polyline class="st1" points="42.5,46.9 43.6,20.9 51.9,19.5 50.3,38.4 51.3,38.4 53.7,21.8 	"/>
	<line class="st1" x1="52" y1="19.4" x2="53.6" y2="22"/>
	<path class="st1" d="M47.9,20.2c0.1-0.2,0.4-8.5,0.4-8.5l7.8,0.6l-2,26.1"/>
	<polyline class="st1" points="52.8,11.8 52.8,8.7 54.7,7.3 63,7.9 62.1,15 59.2,38.4 	"/>
	<polyline class="st1" points="62.1,15 67.7,15.9 63,38.5 	"/>
	<line class="st1" x1="54.7" y1="7.3" x2="54.6" y2="12.1"/>
	<polyline class="st1" points="29.4,76.1 27.6,75.2 22.1,41.1 22.5,38.6 	"/>
</g>
</svg>
